<svg width="41" height="41" viewBox="0 0 41 41" fill="none" xmlns="http://www.w3.org/2000/svg">
<path d="M0.0720215 2.01221C0.0720215 0.907638 0.967452 0.012207 2.07202 0.012207H38.072C39.1766 0.012207 40.072 0.907638 40.072 2.01221V38.0122C40.072 39.1168 39.1766 40.0122 38.072 40.0122H2.07202C0.967453 40.0122 0.0720215 39.1168 0.0720215 38.0122V2.01221Z" fill="#6565EE" fill-opacity="0.06"/>
<path fill-rule="evenodd" clip-rule="evenodd" d="M18.7387 29.3826C18.7387 21.4297 25.1858 14.9826 33.1387 14.9826V17.6492C26.6585 17.6492 21.4053 22.9024 21.4053 29.3826H18.7387Z" fill="url(#paint0_linear)"/>
<path fill-rule="evenodd" clip-rule="evenodd" d="M21.4054 29.3826C21.4054 21.4297 14.9583 14.9826 7.00537 14.9826V17.6492C13.4855 17.6492 18.7387 22.9024 18.7387 29.3826H21.4054Z" fill="url(#paint1_linear)"/>
<path fill-rule="evenodd" clip-rule="evenodd" d="M20.2054 16.9828C21.9727 16.9828 23.4054 15.5501 23.4054 13.7828C23.4054 12.0155 21.9727 10.5828 20.2054 10.5828C18.4381 10.5828 17.0054 12.0155 17.0054 13.7828C17.0054 15.5501 18.4381 16.9828 20.2054 16.9828Z" fill="url(#paint2_linear)"/>
<path fill-rule="evenodd" clip-rule="evenodd" d="M20.069 29.4419V23.3828C20.069 23.3828 19.2681 25.1607 19.051 26.1497C18.9391 26.6595 18.8296 27.4325 18.7663 28.466C18.7477 28.7692 18.7388 29.4419 18.7388 29.4419H20.069ZM20.0721 29.4419V23.3828C20.0721 23.3828 20.873 25.1607 21.0901 26.1497C21.2021 26.6595 21.3116 27.4325 21.3749 28.466C21.3934 28.7692 21.4024 29.4419 21.4024 29.4419H20.0721Z" fill="url(#paint3_linear)"/>
<defs>
<linearGradient id="paint0_linear" x1="33.1387" y1="29.3826" x2="33.1387" y2="16.3159" gradientUnits="userSpaceOnUse">
<stop stop-color="#A8DDCB"/>
<stop offset="1" stop-color="#48CBF0"/>
</linearGradient>
<linearGradient id="paint1_linear" x1="7.00537" y1="29.3826" x2="7.00537" y2="16.3159" gradientUnits="userSpaceOnUse">
<stop stop-color="#B1BAFF"/>
<stop offset="1" stop-color="#85A2FD"/>
</linearGradient>
<linearGradient id="paint2_linear" x1="13.4512" y1="12.153" x2="16.5917" y2="19.2614" gradientUnits="userSpaceOnUse">
<stop stop-color="#FA69A8"/>
<stop offset="1" stop-color="#F27471"/>
</linearGradient>
<linearGradient id="paint3_linear" x1="19.7424" y1="20.3748" x2="15.3769" y2="25.1589" gradientUnits="userSpaceOnUse">
<stop stop-color="#306AEB"/>
<stop offset="1" stop-color="#A3A8FF"/>
</linearGradient>
</defs>
</svg>
