<svg width="41" height="40" viewBox="0 0 41 40" fill="none" xmlns="http://www.w3.org/2000/svg">
<path d="M0.0705566 2C0.0705566 0.895431 0.965987 0 2.07056 0H38.0706C39.1751 0 40.0706 0.895431 40.0706 2V38C40.0706 39.1046 39.1751 40 38.0706 40H2.07056C0.965988 40 0.0705566 39.1046 0.0705566 38V2Z" fill="#6565EE" fill-opacity="0.06"/>
<path d="M17.3237 25.7002H22.101L19.646 29.3374L17.3237 25.7002Z" fill="#FD7AA0"/>
<path fill-rule="evenodd" clip-rule="evenodd" d="M8.00781 10.6626H32.1332V20.9229H29.7445V18.5342H27.3559V20.9229H24.9672V23.3115H27.3559V25.7002H8.00781V10.6626ZM29.7445 25.7002H32.1332V23.3115H29.7445V20.9229H27.3559V23.3115H29.7445V25.7002Z" fill="url(#paint0_linear)"/>
<path d="M27.356 20.9229H29.7446V23.3115H27.356V20.9229Z" fill="url(#paint1_linear)"/>
<path d="M8.00781 10.6626H32.1332L8.00781 25.7002V10.6626Z" fill="url(#paint2_linear)"/>
<defs>
<linearGradient id="paint0_linear" x1="20.0705" y1="10.6626" x2="20.0705" y2="25.7002" gradientUnits="userSpaceOnUse">
<stop stop-color="#FFA479"/>
<stop offset="1" stop-color="#FC75A3"/>
</linearGradient>
<linearGradient id="paint1_linear" x1="28.5503" y1="20.9229" x2="28.5503" y2="23.3115" gradientUnits="userSpaceOnUse">
<stop stop-color="#59DBDE"/>
<stop offset="1" stop-color="#3DCEF1"/>
</linearGradient>
<linearGradient id="paint2_linear" x1="20.0705" y1="10.6626" x2="20.0705" y2="25.7002" gradientUnits="userSpaceOnUse">
<stop stop-color="#72D0FA"/>
<stop offset="1" stop-color="#ABBDFF"/>
</linearGradient>
</defs>
</svg>
