<?xml version="1.0" encoding="utf-8"?>
<!-- Generator: Adobe Illustrator 24.3.0, SVG Export Plug-In . SVG Version: 6.00 Build 0)  -->
<svg version="1.1" id="Calque_1" xmlns="http://www.w3.org/2000/svg" xmlns:xlink="http://www.w3.org/1999/xlink" x="0px" y="0px"
	 viewBox="0 0 1080 1080" style="enable-background:new 0 0 1080 1080;" xml:space="preserve">
<style type="text/css">
	.st0{fill:#2DC5FA;}
	.st1{fill:#FFFFFF;}
</style>
<g>
	<path class="st0" d="M513,93.8L149.1,293.7c-15.2,8.4-27.5,29.2-27.5,46.5v397.5c0,17.3,12.3,38.2,27.5,46.5L513,984.2
		c15.2,8.4,39.9,8.4,55.1,0l363.9-199.9c15.2-8.4,27.5-29.2,27.5-46.5V340.2c0-17.3-12.3-38.2-27.5-46.5L568,93.8
		c-7.6-4.2-17.6-6.3-27.5-6.3C530.6,87.5,520.6,89.6,513,93.8"/>
	<path class="st1" d="M405.8,435.5c0.1,0,0.1,0,0.2,0C405.9,435.5,405.8,435.5,405.8,435.5C405.7,435.5,405.8,435.5,405.8,435.5
		 M405.6,435.5C405.7,435.5,405.7,435.5,405.6,435.5c0,0,0,0-0.1,0C405.6,435.5,405.6,435.5,405.6,435.5 M405.3,435.5
		C405.3,435.5,405.3,435.5,405.3,435.5C405.3,435.5,405.3,435.5,405.3,435.5C405.3,435.5,405.3,435.5,405.3,435.5 M405.3,435.5
		L405.3,435.5L405.3,435.5 M405.1,435.5C405.2,435.5,405.2,435.5,405.1,435.5c0.1,0,0.1,0,0.1,0
		C405.2,435.5,405.2,435.5,405.1,435.5L405.1,435.5 M314,515h29.8V368.6H314V515z M407.4,435.7C407.4,435.7,407.4,435.7,407.4,435.7
		C407.4,435.7,407.4,435.7,407.4,435.7 M407,435.7c0.2,0,0.3,0,0.4,0C407.3,435.7,407.2,435.7,407,435.7 M406.3,435.6
		c0.1,0,0.1,0,0.2,0C406.4,435.6,406.3,435.6,406.3,435.6 M405.4,435.5C405.4,435.5,405.4,435.5,405.4,435.5
		C405.4,435.5,405.4,435.5,405.4,435.5 M405.1,435.5v-44c6.1-0.8,12.9-1.2,18.7-1.2c21.4,0,28.7,6.5,28.7,22.7
		c0,18.6-10.9,23.3-29.3,23.3c-5.8,0-11.5-0.1-17.3-0.7c0,0,0,0,0,0c-0.1,0-0.1,0-0.2,0c0,0-0.1,0-0.1,0c0,0-0.1,0-0.2,0
		c0,0,0.1,0,0.1,0c0,0-0.1,0-0.1,0c0,0,0,0,0,0c0,0-0.1,0-0.1,0c0,0,0,0,0.1,0c0,0-0.1,0-0.1,0C405.3,435.5,405.3,435.5,405.1,435.5
		C405.2,435.5,405.1,435.5,405.1,435.5L405.1,435.5 M375.5,371.1V515h29.6v-55.9c5.2,0.3,11.9,0.6,17.9,0.6l30,55.2h34.2l-33.4-58.6
		c17.2-5.2,28.1-17.4,28.1-43.3c0-39.6-26.5-46-58.8-46C405.6,367.1,388.2,368.8,375.5,371.1 M535.8,441.8
		c0-29.9,0.6-50.3,28.4-50.3c27.7,0,28.4,20.4,28.4,50.3c0,29.8-0.7,50.2-28.4,50.2C536.4,491.9,535.8,471.6,535.8,441.8
		 M505.6,441.8c0,53,13,74.7,58.6,74.7c45.5,0,58.5-21.7,58.5-74.7s-13-74.7-58.5-74.7C518.6,367.1,505.6,388.7,505.6,441.8
		 M650.5,389.3V515h26.7V407.2l46.5,90c7.5,14.6,14.4,19.3,25.3,19.3c11.4,0,17.9-6.8,17.9-22.3V368.6h-26.7v107.3l-46.5-89.6
		c-7.4-14.1-15.1-19.2-25.2-19.2C657.3,367.1,650.5,373.7,650.5,389.3"/>
	<path class="st1" d="M399.5,569.6v62.8H321v-62.8h-11.7v139.1H321v-66.1h78.5v66.1h11.7V569.6H399.5z M754.9,569.6L690.6,634v-64.4
		h-11.7v139.1h11.7v-68.3l65.5,68.3h15.6l-69.3-71.9l67.4-67.2H754.9z M495.8,583.8l27.6,73.8H468L495.8,583.8z M487.5,576.1
		l-50.6,132.5h12l15.5-41.3H527l15.4,41.3H555l-50-132.5c-2-5.2-4.7-7.9-8.8-7.9C492.1,568.1,489.5,570.8,487.5,576.1 M566.8,639.1
		c0,49.3,10.8,71,55.4,71c11.5,0,21.7-1.2,30.4-2.9l-1.1-9.4c-7.7,1.1-15.4,2.1-23.2,2.1c-43.9,0-49.6-19.9-49.6-60.7
		c0-40.7,4.8-60.8,49.6-60.8c7.5,0,16,1.1,23.1,2.2l1.1-9.7c-8.7-1.7-19.2-2.7-30.4-2.7C577.7,568.1,566.8,589.7,566.8,639.1"/>
</g>
</svg>
